<svg xml:space="preserve" viewBox="0 0 150 39.55" xmlns="http://www.w3.org/2000/svg"><path style="fill:#4664af" d="M53.45 226.085h58.72v29.36H53.45zM170.889 226.085h146.799v29.36H170.889zM376.408 226.085h190.839v29.36H376.408zM625.966 226.085h220.199v29.36H625.966z" transform="matrix(.18879 0 0 .18879 -10.09 -8.666)"/><g><path style="fill:#1e1e1e" d="M446.137 76.489V49.576H336.038v26.913h40.37v105.206h29.36V76.489zM79.751 181.695l61.778-85.667v85.667h29.36V49.576h-26.301L82.81 135.242V49.576H53.45v132.119zM493.847 128.48H564.8v-25.69h-70.953V76.489h73.4V49.576h-102.76v132.119h102.76v-26.913h-73.4zM230.832 128.48h57.496v53.215h29.36V49.576h-29.36v50.768h-57.496V49.576h-29.36v132.119h29.36zM777.659 45.906c-39.758 0-70.341 31.219-70.341 69.73s30.583 69.73 70.341 69.73c39.758 0 70.341-31.22 70.341-69.731 0-38.51-30.583-69.729-70.341-69.729zm0 111.322c-26.096 0-40.982-19.297-40.982-41.593 0-22.296 14.885-41.593 40.982-41.593 26.096 0 40.981 19.298 40.981 41.593 0 22.296-14.885 41.593-40.981 41.593z" transform="matrix(.18879 0 0 .18879 -10.09 -8.666)"/></g><path style="fill:#1e1e1e" d="M624.131 101.567V49.576h-29.36v132.272h29.36v-51.991h13.546l38.192 51.991h35.118l-49.614-66.136 49.614-66.136h-35.118l-38.192 51.991z" transform="matrix(.18879 0 0 .18879 -10.09 -8.666)"/></svg>