<svg xmlns="http://www.w3.org/2000/svg" xmlns:xlink="http://www.w3.org/1999/xlink"><symbol id="icon-arrow" viewBox="0 0 22 6.03"><path d="M3855.125-2722.275h30.063l-4.852-6.13 1.568-1.241 7.418 9.371h-34.197z" transform="matrix(.64337 0 0 .64337 -2480.263 1756.167)"/></symbol><symbol id="icon-lang" viewBox="0 0 20 20"><path style="stroke-width:.0520831" d="M17.07 2.93a9.992 9.992 0 0 0-14.14 0 9.992 9.992 0 0 0 0 14.14 9.992 9.992 0 0 0 14.14 0 9.992 9.992 0 0 0 0-14.14zm-.418 12.714a10.026 10.026 0 0 0-1.494-1.106c.348-1.202.554-2.525.603-3.901h2.94a8.645 8.645 0 0 1-2.05 5.007zM1.299 10.637h2.94c.049 1.376.255 2.699.603 3.901a10.026 10.026 0 0 0-1.494 1.106A8.643 8.643 0 0 1 1.3 10.637Zm2.05-6.281a10.026 10.026 0 0 0 1.493 1.106 16.17 16.17 0 0 0-.603 3.9h-2.94a8.643 8.643 0 0 1 2.05-5.006Zm6.014 1.237a8.654 8.654 0 0 1-2.97-.752c.54-1.391 1.536-3.06 2.97-3.473Zm0 1.277v2.493h-3.85a15.01 15.01 0 0 1 .484-3.303 9.93 9.93 0 0 0 3.366.81Zm0 3.767v2.493a9.93 9.93 0 0 0-3.366.81 15.01 15.01 0 0 1-.483-3.303Zm0 3.77v4.225c-1.434-.413-2.43-2.082-2.97-3.473a8.654 8.654 0 0 1 2.97-.752Zm1.274 0c1.04.074 2.041.33 2.97.752-.54 1.391-1.536 3.06-2.97 3.473zm0-1.277v-2.493h3.85a15.01 15.01 0 0 1-.484 3.303 9.928 9.928 0 0 0-3.366-.81zm0-3.767V6.87a9.93 9.93 0 0 0 3.366-.81c.275 1.022.44 2.14.484 3.303zm0-3.77V1.368c1.434.414 2.43 2.082 2.97 3.473a8.653 8.653 0 0 1-2.97.752zm2.862-3.589a8.678 8.678 0 0 1 2.258 1.443 8.748 8.748 0 0 1-1.025.777c-.317-.786-.723-1.55-1.233-2.22Zm-8.231 2.22a8.764 8.764 0 0 1-1.025-.777A8.679 8.679 0 0 1 6.5 2.004c-.51.67-.916 1.434-1.233 2.22Zm0 11.552c.317.786.723 1.55 1.233 2.22a8.677 8.677 0 0 1-2.258-1.442 8.748 8.748 0 0 1 1.025-.778zm9.464 0a8.748 8.748 0 0 1 1.025.778 8.683 8.683 0 0 1-2.258 1.442c.51-.67.916-1.434 1.233-2.22zm1.03-6.413a16.171 16.171 0 0 0-.604-3.901 10.026 10.026 0 0 0 1.494-1.106A8.644 8.644 0 0 1 18.7 9.363zm0 0"/></symbol></svg>